<svg width="36" height="36" viewBox="0 0 36 36" fill="none" xmlns="http://www.w3.org/2000/svg">
<path d="M35.5 18C35.5 8.33502 27.665 0.5 18 0.5C8.33502 0.5 0.5 8.33502 0.5 18C0.5 27.665 8.33502 35.5 18 35.5C27.665 35.5 35.5 27.665 35.5 18Z" stroke="#192841"/>
<path fill-rule="evenodd" clip-rule="evenodd" d="M15.2936 22.7076C15.1061 22.52 15.0008 22.2657 15.0008 22.0006C15.0008 21.7354 15.1061 21.4811 15.2936 21.2936L18.5866 18.0006L15.2936 14.7076C15.1981 14.6153 15.1219 14.505 15.0695 14.383C15.0171 14.261 14.9895 14.1298 14.9883 13.997C14.9872 13.8642 15.0125 13.7325 15.0627 13.6096C15.113 13.4867 15.1873 13.3751 15.2812 13.2812C15.3751 13.1873 15.4867 13.113 15.6096 13.0627C15.7325 13.0125 15.8642 12.9872 15.997 12.9883C16.1298 12.9895 16.261 13.0171 16.383 13.0695C16.505 13.1219 16.6153 13.1981 16.7076 13.2936L20.7076 17.2936C20.895 17.4811 21.0004 17.7354 21.0004 18.0006C21.0004 18.2657 20.895 18.52 20.7076 18.7076L16.7076 22.7076C16.52 22.895 16.2657 23.0004 16.0006 23.0004C15.7354 23.0004 15.4811 22.895 15.2936 22.7076Z" fill="#192841"/>
</svg>
