<svg width="146" height="146" viewBox="0 0 146 146" fill="none" xmlns="http://www.w3.org/2000/svg">
<g filter="url(#filter0_d_1000_11701)">
<circle cx="73" cy="71" r="25" fill="#FF5858"/>
</g>
<path d="M67.6129 64.2097L67.7071 64.2929L73 69.585L78.2929 64.2929C78.6834 63.9024 79.3166 63.9024 79.7071 64.2929C80.0676 64.6534 80.0953 65.2206 79.7903 65.6129L79.7071 65.7071L74.415 71L79.7071 76.2929C80.0976 76.6834 80.0976 77.3166 79.7071 77.7071C79.3466 78.0676 78.7794 78.0953 78.3871 77.7903L78.2929 77.7071L73 72.415L67.7071 77.7071C67.3166 78.0976 66.6834 78.0976 66.2929 77.7071C65.9324 77.3466 65.9047 76.7794 66.2097 76.3871L66.2929 76.2929L71.585 71L66.2929 65.7071C65.9024 65.3166 65.9024 64.6834 66.2929 64.2929C66.6233 63.9624 67.1275 63.9116 67.5114 64.1404L67.6129 64.2097Z" fill="white"/>
<defs>
<filter id="filter0_d_1000_11701" x="0" y="0" width="146" height="146" filterUnits="userSpaceOnUse" color-interpolation-filters="sRGB">
<feFlood flood-opacity="0" result="BackgroundImageFix"/>
<feColorMatrix in="SourceAlpha" type="matrix" values="0 0 0 0 0 0 0 0 0 0 0 0 0 0 0 0 0 0 127 0" result="hardAlpha"/>
<feOffset dy="2"/>
<feGaussianBlur stdDeviation="24"/>
<feColorMatrix type="matrix" values="0 0 0 0 0 0 0 0 0 0 0 0 0 0 0 0 0 0 0.06 0"/>
<feBlend mode="normal" in2="BackgroundImageFix" result="effect1_dropShadow_1000_11701"/>
<feBlend mode="normal" in="SourceGraphic" in2="effect1_dropShadow_1000_11701" result="shape"/>
</filter>
</defs>
</svg>
