<svg width="175" height="163" viewBox="0 0 175 163" fill="none" xmlns="http://www.w3.org/2000/svg">
<path d="M160.658 68.0193C159.441 62.7723 156.258 58.1917 151.765 55.2209C147.272 52.2502 141.811 51.1153 136.506 52.0501C136.537 48.3012 135.567 44.612 133.694 41.364C131.822 38.116 129.116 35.4271 125.856 33.5755C122.596 31.7238 118.901 30.7767 115.152 30.832C111.404 30.8873 107.738 31.943 104.534 33.8899C102.689 29.9845 99.6887 26.7399 95.9396 24.5947C92.1905 22.4494 87.8731 21.507 83.5711 21.8947C79.2691 22.2825 75.1899 23.9817 71.8848 26.7627C68.5797 29.5437 66.2081 33.2724 65.0906 37.4448C62.051 34.5573 58.2181 32.6436 54.0835 31.949C49.9489 31.2544 45.7011 31.8107 41.8847 33.5464C38.0684 35.2822 34.8575 38.1183 32.6638 41.6911C30.4701 45.2639 29.3936 49.4105 29.5723 53.5993C25.3868 56.4029 22.3418 60.6109 20.9874 65.4632C19.633 70.3156 20.0585 75.4923 22.187 80.0583C18.7698 84.0699 16.982 89.2175 17.1771 94.4835C17.3722 99.7496 19.536 104.751 23.2406 108.499C26.9453 112.246 31.9211 114.468 37.1846 114.724C42.448 114.98 47.616 113.251 51.6668 109.881C52.5921 112.88 54.1768 115.635 56.3048 117.943C58.4327 120.251 61.05 122.053 63.9649 123.218C66.8798 124.383 70.0184 124.882 73.1509 124.677C76.2833 124.471 79.3301 123.568 82.0682 122.033C83.8079 125.993 86.7259 129.321 90.4249 131.564C94.1238 133.807 98.424 134.855 102.74 134.566C107.056 134.277 111.178 132.665 114.546 129.95C117.913 127.234 120.361 123.547 121.558 119.39C124.991 119.993 128.519 119.733 131.827 118.634C135.134 117.536 138.117 115.633 140.508 113.097C142.898 110.561 144.621 107.47 145.522 104.104C146.423 100.737 146.474 97.1993 145.67 93.8081C145.622 93.6032 145.574 93.3983 145.527 93.1934C150.833 91.7978 155.384 88.3851 158.21 83.6827C161.037 78.9802 161.915 73.3598 160.658 68.0193Z" fill="#C5C8C9" stroke="#8D9BA2" stroke-linecap="round" stroke-linejoin="round"/>
<path d="M72.291 136.33C77.9653 135.005 81.7674 130.515 80.7833 126.302C79.7992 122.089 74.4015 119.748 68.7273 121.073C63.053 122.398 59.2509 126.888 60.235 131.101C61.2191 135.315 66.6168 137.656 72.291 136.33Z" fill="#C5C8C9" stroke="#8FA3AC" stroke-linecap="round" stroke-linejoin="round"/>
<path d="M74.6035 146.812C75.291 149.756 72.6322 152.882 68.6828 153.804C64.7333 154.727 60.965 153.102 60.2775 150.159C59.5899 147.215 62.2394 144.091 66.1982 143.167C70.1569 142.242 73.9182 143.878 74.6035 146.812Z" fill="#C5C8C9" stroke="#8FA3AC" stroke-linecap="round" stroke-linejoin="round"/>
<path d="M156.566 62.62C155.349 57.3744 152.168 52.7949 147.677 49.8239C143.186 46.8529 137.727 45.7165 132.423 46.6486C132.454 42.8997 131.484 39.2105 129.612 35.9625C127.739 32.7144 125.033 30.0256 121.773 28.1739C118.514 26.3223 114.818 25.3752 111.07 25.4305C107.321 25.4857 103.655 26.5414 100.451 28.4884C98.6021 24.5875 95.6009 21.3477 91.8526 19.206C88.1044 17.0643 83.7894 16.1238 79.4899 16.5113C75.1903 16.8988 71.1131 18.5957 67.8082 21.3731C64.5033 24.1505 62.1297 27.8747 61.0078 32.0433C57.9681 29.1558 54.1352 27.2421 50.0006 26.5475C45.866 25.8529 41.6182 26.4091 37.8019 28.1449C33.9855 29.8806 30.7746 32.7168 28.5809 36.2896C26.3872 39.8624 25.3107 44.009 25.4894 48.1977C21.2971 50.9927 18.2467 55.1991 16.8928 60.0524C15.5388 64.9057 15.9712 70.0837 18.1113 74.6453C14.679 78.6549 12.8787 83.8079 13.0674 89.0825C13.2561 94.3572 15.42 99.3684 19.1301 103.122C22.8401 106.877 27.8254 109.099 33.0975 109.35C38.3695 109.601 43.5434 107.862 47.5932 104.477C49.1674 109.575 52.6189 113.884 57.2497 116.534C61.8804 119.183 67.3447 119.975 72.537 118.749C74.4502 118.3 76.2901 117.583 78.0017 116.618C79.7403 120.579 82.6575 123.908 86.3561 126.152C90.0547 128.396 94.3551 129.446 98.6716 129.158C102.988 128.87 107.111 127.259 110.479 124.544C113.847 121.829 116.296 118.142 117.494 113.985C120.924 114.565 124.444 114.289 127.741 113.182C131.039 112.075 134.012 110.17 136.397 107.637C138.781 105.104 140.503 102.022 141.409 98.6633C142.316 95.3048 142.379 91.7744 141.592 88.3858C141.542 88.1716 141.496 87.976 141.449 87.771C146.747 86.3723 151.291 82.9619 154.114 78.265C156.937 73.5681 157.817 67.9552 156.566 62.62Z" fill="white" stroke="#8FA3AC" stroke-miterlimit="10"/>
<path d="M76.7039 120.889C77.6895 125.109 73.8865 129.602 68.2418 130.92C62.5971 132.239 57.1971 129.895 56.2116 125.676C55.226 121.456 59.0312 116.972 64.6759 115.654C70.3206 114.335 75.7205 116.679 76.7039 120.889Z" fill="white" stroke="#8FA3AC" stroke-miterlimit="10"/>
<path d="M70.5137 141.41C71.199 144.344 68.5517 147.477 64.5929 148.402C60.6342 149.326 56.873 147.69 56.1876 144.756C55.5023 141.822 58.1589 138.687 62.1083 137.764C66.0578 136.842 69.8283 138.476 70.5137 141.41Z" fill="white" stroke="#8FA3AC" stroke-miterlimit="10"/>
<path d="M70.7978 77.3676C70.6339 76.6657 70.2655 76.0282 69.7392 75.5356C69.213 75.0431 68.5524 74.7177 67.8412 74.6006C67.13 74.4834 66.4 74.5798 65.7436 74.8775C65.0872 75.1753 64.5337 75.661 64.1533 76.2732C63.7729 76.8855 63.5826 77.5968 63.6065 78.3172C63.6303 79.0376 63.8673 79.7347 64.2874 80.3205C64.7075 80.9062 65.2918 81.3542 65.9665 81.6079C66.6412 81.8615 67.376 81.9094 68.0779 81.7454C69.0178 81.5233 69.8315 80.9381 70.3412 80.1178C70.8509 79.2974 71.0151 78.3087 70.7978 77.3676Z" fill="#3EA0B3"/>
<path d="M87.8564 73.3832C87.6925 72.6813 87.3241 72.0438 86.7978 71.5513C86.2716 71.0587 85.611 70.7333 84.8998 70.6162C84.1886 70.499 83.4586 70.5954 82.8022 70.8932C82.1458 71.1909 81.5923 71.6766 81.2119 72.2889C80.8315 72.9011 80.6412 73.6124 80.6651 74.3328C80.6889 75.0532 80.9259 75.7504 81.346 76.3361C81.7661 76.9218 82.3504 77.3699 83.0251 77.6235C83.6998 77.8771 84.4346 77.925 85.1365 77.7611C86.0777 77.5412 86.8931 76.9565 87.4031 76.1355C87.9132 75.3145 88.0763 74.3245 87.8564 73.3832Z" fill="#3EA0B3"/>
<path d="M104.864 69.4106C104.7 68.7087 104.332 68.0711 103.806 67.5786C103.279 67.0861 102.619 66.7607 101.908 66.6435C101.196 66.5264 100.466 66.6228 99.81 66.9205C99.1536 67.2182 98.6001 67.7039 98.2198 68.3162C97.8394 68.9284 97.649 69.6398 97.6729 70.3602C97.6968 71.0806 97.9337 71.7777 98.3538 72.3635C98.7739 72.9492 99.3582 73.3972 100.033 73.6509C100.708 73.9045 101.442 73.9524 102.144 73.7884C103.084 73.5663 103.898 72.9811 104.408 72.1607C104.917 71.3404 105.081 70.3516 104.864 69.4106Z" fill="#3EA0B3"/>
</svg>
