<svg width="39" height="39" viewBox="0 0 39 39" fill="none" xmlns="http://www.w3.org/2000/svg">
<mask id="mask0_1012_14455" style="mask-type:alpha" maskUnits="userSpaceOnUse" x="0" y="0" width="39" height="39">
<circle cx="19.5" cy="19.5" r="19.5" fill="#C4C4C4"/>
</mask>
<g mask="url(#mask0_1012_14455)">
<rect y="7" width="20" height="37" fill="#007AFF" fill-opacity="0.1"/>
<path fill-rule="evenodd" clip-rule="evenodd" d="M5 7.25H3C1.48122 7.25 0.25 8.48122 0.25 10V41C0.25 42.5188 1.48122 43.75 3 43.75H17C18.5188 43.75 19.75 42.5188 19.75 41V10C19.75 8.48122 18.5188 7.25 17 7.25H15V8C15 8.55228 14.5523 9 14 9H6C5.44772 9 5 8.55228 5 8V7.25ZM5 6H3C0.790861 6 -1 7.79086 -1 10V41C-1 43.2091 0.790861 45 3 45H17C19.2091 45 21 43.2091 21 41V23C21.5523 23 22 22.5523 22 22V16C22 15.4477 21.5523 15 21 15V10C21 7.79086 19.2091 6 17 6H15H5Z" fill="#007AFF"/>
</g>
<circle cx="19.5" cy="19.5" r="18.5" stroke="#007AFF" stroke-width="2"/>
<path fill-rule="evenodd" clip-rule="evenodd" d="M29.2803 15.2803C29.5732 14.9874 29.5732 14.5126 29.2803 14.2197C28.9874 13.9268 28.5126 13.9268 28.2197 14.2197L24.2197 18.2197C23.9268 18.5126 23.9268 18.9874 24.2197 19.2803L28.2197 23.2803C28.5126 23.5732 28.9874 23.5732 29.2803 23.2803C29.5732 22.9874 29.5732 22.5126 29.2803 22.2197L26.5607 19.5H33.25C33.6642 19.5 34 19.1642 34 18.75C34 18.3358 33.6642 18 33.25 18H26.5607L29.2803 15.2803Z" fill="#007AFF"/>
</svg>
