<svg width="26" height="25" viewBox="0 0 26 25" fill="none" xmlns="http://www.w3.org/2000/svg">
<path d="M24.9829 2.23312H9.49268C9.06681 0.936671 7.87044 0 6.46381 0C5.05718 0 3.86081 0.936671 3.43494 2.23312H1.01704C0.455361 2.23312 0 2.69986 0 3.27557C0 3.85128 0.455361 4.31801 1.01704 4.31801H3.43501C3.86087 5.61446 5.05725 6.55114 6.46388 6.55114C7.87051 6.55114 9.06688 5.61446 9.49275 4.31801H24.983C25.5446 4.31801 26 3.85128 26 3.27557C26 2.69986 25.5446 2.23312 24.9829 2.23312ZM6.46381 4.46625C5.82328 4.46625 5.30215 3.9321 5.30215 3.27557C5.30215 2.61904 5.82328 2.08489 6.46381 2.08489C7.10434 2.08489 7.62547 2.61904 7.62547 3.27557C7.62547 3.9321 7.10434 4.46625 6.46381 4.46625Z" fill="#656F80"/>
<path d="M24.9829 11.1648H22.5649C22.1391 9.86831 20.9426 8.93164 19.5361 8.93164C18.1295 8.93164 16.9331 9.86831 16.5072 11.1648H1.01704C0.455361 11.1648 0 11.6315 0 12.2072C0 12.7829 0.455361 13.2497 1.01704 13.2497H16.5072C16.9331 14.5461 18.1296 15.4828 19.5361 15.4828C20.9427 15.4828 22.1391 14.5461 22.565 13.2497H24.983C25.5446 13.2497 26 12.7829 26 12.2072C26 11.6315 25.5446 11.1648 24.9829 11.1648ZM19.5361 13.3979C18.8956 13.3979 18.3745 12.8637 18.3745 12.2072C18.3745 11.5507 18.8956 11.0165 19.5361 11.0165C20.1767 11.0165 20.6978 11.5507 20.6978 12.2072C20.6978 12.8637 20.1767 13.3979 19.5361 13.3979Z" fill="#656F80"/>
<path d="M24.9829 20.0984H13.8501C13.4243 18.8019 12.2279 17.8652 10.8213 17.8652C9.41464 17.8652 8.21827 18.8019 7.7924 20.0984H1.01704C0.455361 20.0984 0 20.5651 0 21.1408C0 21.7165 0.455361 22.1832 1.01704 22.1832H7.7924C8.21827 23.4797 9.41464 24.4164 10.8213 24.4164C12.2279 24.4164 13.4243 23.4797 13.8501 22.1832H24.983C25.5446 22.1832 26 21.7165 26 21.1408C26 20.5651 25.5446 20.0984 24.9829 20.0984ZM10.8213 22.3315C10.1807 22.3315 9.65961 21.7974 9.65961 21.1409C9.65961 20.4843 10.1807 19.9502 10.8213 19.9502C11.4618 19.9502 11.9829 20.4843 11.9829 21.1408C11.9829 21.7973 11.4618 22.3315 10.8213 22.3315Z" fill="#656F80"/>
</svg>
