<svg width="11" height="17" viewBox="0 0 11 17" fill="none" xmlns="http://www.w3.org/2000/svg">
<path d="M2.01558 0.325817C1.80031 0.114994 1.52634 0 1.20345 0C0.557653 0 0.0390625 0.49831 0.0390625 1.13078C0.0390625 1.44701 0.176049 1.7345 0.401098 1.9549L7.25041 8.50958L0.401098 15.0451C0.176049 15.2655 0.0390625 15.5626 0.0390625 15.8692C0.0390625 16.5017 0.557653 17 1.20345 17C1.52634 17 1.80031 16.885 2.01558 16.6742L9.6281 9.39121C9.90208 9.14205 10.0293 8.8354 10.0391 8.5C10.0391 8.1646 9.90208 7.87711 9.6281 7.61838L2.01558 0.325817Z" fill="#FF7A00"/>
</svg>
