<svg width="16" height="16" viewBox="0 0 16 16" fill="none" xmlns="http://www.w3.org/2000/svg">
<path fill-rule="evenodd" clip-rule="evenodd" d="M8 2.52501C5.50135 2.52501 3.46708 4.64672 3.46708 7.27518C3.46708 9.11451 4.61401 10.9199 5.90104 12.3419C6.52987 13.0367 7.16115 13.606 7.63601 14.0018C7.77191 14.1151 7.89451 14.2138 8 14.2967C8.10548 14.2138 8.22809 14.1151 8.36399 14.0018C8.83885 13.606 9.47013 13.0367 10.099 12.3419C11.386 10.9199 12.5329 9.11451 12.5329 7.27518C12.5329 4.64672 10.4986 2.52501 8 2.52501ZM8 15.2379C7.59114 15.871 7.59096 15.8709 7.59076 15.8707L7.58889 15.8694L7.58472 15.8665L7.57078 15.8566L7.52123 15.821C7.47891 15.7904 7.41839 15.7459 7.34226 15.6883C7.19007 15.5733 6.9751 15.4057 6.71823 15.1916C6.20562 14.7643 5.52029 14.1468 4.8325 13.3869C3.48631 11.8995 2 9.72349 2 7.27518C2 3.81451 4.68148 1 8 1C11.3185 1 14 3.81451 14 7.27518C14 9.72349 12.5137 11.8995 11.1675 13.3869C10.4797 14.1468 9.79438 14.7643 9.28177 15.1916C9.0249 15.4057 8.80993 15.5733 8.65774 15.6883C8.58161 15.7459 8.52109 15.7904 8.47877 15.821L8.42922 15.8566L8.41528 15.8665L8.41111 15.8694L8.40974 15.8704C8.40954 15.8705 8.40886 15.871 8 15.2379ZM8 15.2379L8.40974 15.8704C8.16245 16.043 7.83805 16.0433 7.59076 15.8707L8 15.2379Z" fill="#222222"/>
<path fill-rule="evenodd" clip-rule="evenodd" d="M6 7C6 5.89543 6.89543 5 8 5C9.10457 5 10 5.89543 10 7C10 8.10457 9.10457 9 8 9C6.89543 9 6 8.10457 6 7ZM8 6.24647C7.58383 6.24647 7.24647 6.58383 7.24647 7C7.24647 7.41617 7.58383 7.75353 8 7.75353C8.41617 7.75353 8.75353 7.41617 8.75353 7C8.75353 6.58383 8.41617 6.24647 8 6.24647Z" fill="#222222"/>
</svg>
