<svg width="32" height="32" viewBox="0 0 32 32" fill="none" xmlns="http://www.w3.org/2000/svg">
<path d="M6.66667 9.33333C8.1394 9.33333 9.33333 8.1394 9.33333 6.66667C9.33333 5.19391 8.1394 4 6.66667 4C5.19391 4 4 5.19391 4 6.66667C4 8.1394 5.19391 9.33333 6.66667 9.33333Z" fill="#192841"/>
<path d="M16.0026 9.33333C17.4753 9.33333 18.6693 8.1394 18.6693 6.66667C18.6693 5.19391 17.4753 4 16.0026 4C14.5299 4 13.3359 5.19391 13.3359 6.66667C13.3359 8.1394 14.5299 9.33333 16.0026 9.33333Z" fill="#192841"/>
<path d="M25.3307 9.33333C26.8035 9.33333 27.9974 8.1394 27.9974 6.66667C27.9974 5.19391 26.8035 4 25.3307 4C23.858 4 22.6641 5.19391 22.6641 6.66667C22.6641 8.1394 23.858 9.33333 25.3307 9.33333Z" fill="#192841"/>
<path d="M6.66667 18.6673C8.1394 18.6673 9.33333 17.4734 9.33333 16.0007C9.33333 14.5279 8.1394 13.334 6.66667 13.334C5.19391 13.334 4 14.5279 4 16.0007C4 17.4734 5.19391 18.6673 6.66667 18.6673Z" fill="#192841"/>
<path d="M16.0026 18.6673C17.4753 18.6673 18.6693 17.4734 18.6693 16.0007C18.6693 14.5279 17.4753 13.334 16.0026 13.334C14.5299 13.334 13.3359 14.5279 13.3359 16.0007C13.3359 17.4734 14.5299 18.6673 16.0026 18.6673Z" fill="#192841"/>
<path d="M25.3307 18.6673C26.8035 18.6673 27.9974 17.4734 27.9974 16.0007C27.9974 14.5279 26.8035 13.334 25.3307 13.334C23.858 13.334 22.6641 14.5279 22.6641 16.0007C22.6641 17.4734 23.858 18.6673 25.3307 18.6673Z" fill="#192841"/>
<path d="M6.66667 27.9993C8.1394 27.9993 9.33333 26.8054 9.33333 25.3327C9.33333 23.8599 8.1394 22.666 6.66667 22.666C5.19391 22.666 4 23.8599 4 25.3327C4 26.8054 5.19391 27.9993 6.66667 27.9993Z" fill="#192841"/>
<path d="M16.0026 27.9993C17.4753 27.9993 18.6693 26.8054 18.6693 25.3327C18.6693 23.8599 17.4753 22.666 16.0026 22.666C14.5299 22.666 13.3359 23.8599 13.3359 25.3327C13.3359 26.8054 14.5299 27.9993 16.0026 27.9993Z" fill="#192841"/>
<path d="M25.3307 27.9993C26.8035 27.9993 27.9974 26.8054 27.9974 25.3327C27.9974 23.8599 26.8035 22.666 25.3307 22.666C23.858 22.666 22.6641 23.8599 22.6641 25.3327C22.6641 26.8054 23.858 27.9993 25.3307 27.9993Z" fill="#192841"/>
</svg>
