<svg width="50" height="20" viewBox="0 0 50 20" fill="none" xmlns="http://www.w3.org/2000/svg">
<path d="M9.70508 3.25586C10.2412 2.60547 10.6191 1.71777 10.6191 0.821289C10.6191 0.698242 10.6104 0.575195 10.5928 0.478516C9.71387 0.513672 8.65918 1.05859 8.03516 1.79688C7.53418 2.35938 7.07715 3.25586 7.07715 4.15234C7.07715 4.29297 7.10352 4.4248 7.1123 4.46875C7.16504 4.47754 7.25293 4.49512 7.34961 4.49512C8.13184 4.49512 9.11621 3.96777 9.70508 3.25586ZM10.3203 4.67969C9.01074 4.67969 7.93848 5.47949 7.25293 5.47949C6.52344 5.47949 5.57422 4.73242 4.43164 4.73242C2.26074 4.73242 0.0634766 6.52539 0.0634766 9.90039C0.0634766 12.0098 0.87207 14.2334 1.88281 15.666C2.74414 16.8789 3.5 17.8721 4.58984 17.8721C5.66211 17.8721 6.13672 17.1602 7.47266 17.1602C8.82617 17.1602 9.13379 17.8545 10.3203 17.8545C11.498 17.8545 12.2803 16.7734 13.0273 15.71C13.8535 14.4883 14.2051 13.3018 14.2139 13.2402C14.1436 13.2227 11.8936 12.2998 11.8936 9.72461C11.8936 7.49219 13.6602 6.49023 13.7656 6.41113C12.5967 4.73242 10.8125 4.67969 10.3203 4.67969ZM20.7194 16H22.987V11.8076H25.7819C28.3571 11.8076 30.0973 10.1025 30.0973 7.57129V7.55371C30.0973 5.01367 28.3571 3.31738 25.7819 3.31738H20.7194V16ZM25.2282 5.17188C26.8541 5.17188 27.8034 6.04199 27.8034 7.5625V7.58008C27.8034 9.10059 26.8541 9.97949 25.2282 9.97949H22.987V5.17188H25.2282ZM34.3213 16.1582C35.5869 16.1582 36.6064 15.6133 37.1338 14.6816H37.2832V16H39.4453V9.43457C39.4453 7.4043 38.0566 6.20898 35.5869 6.20898C33.3017 6.20898 31.7548 7.28125 31.5439 8.89844L31.5351 8.97754H33.6005L33.6093 8.94238C33.8291 8.30957 34.4795 7.94922 35.4814 7.94922C36.6591 7.94922 37.2832 8.47656 37.2832 9.43457V10.2607L34.8134 10.4102C32.4755 10.5508 31.166 11.5527 31.166 13.2666V13.2842C31.166 15.0332 32.4931 16.1582 34.3213 16.1582ZM33.3281 13.1787V13.1611C33.3281 12.3701 33.8994 11.9219 35.1211 11.8428L37.2832 11.7021V12.4756C37.2832 13.6182 36.3076 14.4795 34.9892 14.4795C34.0224 14.4795 33.3281 13.9961 33.3281 13.1787ZM42.4827 19.375C44.6096 19.375 45.7083 18.6104 46.5345 16.2021L49.9798 6.39355H47.677L45.4446 13.8994H45.2776L43.0364 6.39355H40.6458L44.0823 16.0088L43.968 16.4482C43.7307 17.3184 43.1946 17.6875 42.2981 17.6875C42.0696 17.6875 41.8235 17.6787 41.6477 17.6611V19.3398C41.9114 19.3662 42.219 19.375 42.4827 19.375Z" fill="black"/>
</svg>
