<svg width="105" height="42" viewBox="0 0 105 42" fill="none" xmlns="http://www.w3.org/2000/svg">
<rect x="0.152344" y="15.0234" width="101" height="27" rx="13.5" transform="rotate(-8.34722 0.152344 15.0234)" fill="url(#paint0_linear_1000_11557)"/>
<path d="M40.6134 27.2792L39.4638 27.4479L38.1081 18.2088L41.8204 17.6641C42.7161 17.5327 43.4619 17.6969 44.0576 18.1566C44.6533 18.6163 45.0087 19.2386 45.1239 20.0236C45.2391 20.8085 45.0728 21.5074 44.625 22.1202C44.1865 22.7317 43.5239 23.1024 42.6374 23.2325L40.0749 23.6085L40.6134 27.2792ZM42.3485 22.2278C42.8933 22.1479 43.3129 21.9212 43.6071 21.5479C43.9 21.1653 44.0085 20.7155 43.9327 20.1983C43.8568 19.6812 43.6243 19.2861 43.2352 19.013C42.8448 18.7307 42.3771 18.6295 41.8323 18.7095L39.4082 19.0652L39.9245 22.5835L42.3485 22.2278ZM48.261 26.1571L47.2222 26.3095L46.2405 19.6192L47.2794 19.4667L47.4379 20.5472C47.9374 19.6438 48.6211 19.1284 49.4892 19.001L49.6457 20.0676C49.5123 20.0589 49.3718 20.0653 49.224 20.087C48.9101 20.1331 48.5846 20.294 48.2478 20.5698C47.9109 20.8457 47.6836 21.129 47.5659 21.4198L48.261 26.1571ZM54.5085 25.4102C53.5112 25.5566 52.6466 25.3533 51.9145 24.8004C51.1812 24.2382 50.7379 23.4354 50.5848 22.3919C50.4412 21.413 50.6339 20.5405 51.1629 19.7742C51.6906 18.9987 52.4254 18.5419 53.3673 18.4037C54.3554 18.2587 55.1858 18.4859 55.8586 19.0852C56.5393 19.674 56.9555 20.4855 57.1073 21.5198L57.1459 21.7829L51.7299 22.5776C51.8723 23.2265 52.193 23.7407 52.692 24.1203C53.1911 24.4998 53.7869 24.6388 54.4795 24.5372C55.3106 24.4153 55.9572 24.0327 56.4194 23.3894L57.0177 23.995C56.4346 24.7786 55.5982 25.2504 54.5085 25.4102ZM56.0091 21.1715C55.9159 20.6003 55.6467 20.1163 55.2017 19.7193C54.7554 19.3131 54.1813 19.1615 53.4795 19.2645C52.8146 19.3621 52.3214 19.6656 52 20.1749C51.6877 20.683 51.5605 21.2299 51.6181 21.8158L56.0091 21.1715ZM68.0542 23.2529L67.0153 23.4054L66.3487 18.862C66.2132 17.9386 65.7345 17.5371 64.9127 17.6577C64.5802 17.7065 64.2627 17.8569 63.9601 18.1088C63.6574 18.3607 63.4341 18.6388 63.29 18.9429L64.0095 23.8464L62.9706 23.9988L62.304 19.4555C62.1685 18.532 61.6898 18.1306 60.868 18.2512C60.5448 18.2986 60.2318 18.4483 59.9292 18.7002C59.6358 18.9508 59.4132 19.2335 59.2612 19.5482L59.9787 24.4378L58.9398 24.5903L57.9581 17.8999L58.997 17.7475L59.1393 18.7171C59.2676 18.4341 59.5212 18.1375 59.9002 17.8272C60.2791 17.5169 60.6902 17.3292 61.1335 17.2642C61.6229 17.1924 62.0369 17.2495 62.3755 17.4357C62.7142 17.6218 62.9614 17.8921 63.1171 18.2466C63.2715 17.8844 63.5382 17.5481 63.9172 17.2378C64.2961 16.9275 64.7165 16.7385 65.1782 16.6707C66.4248 16.4878 67.1471 17.0705 67.3449 18.4187L68.0542 23.2529ZM69.1875 15.2759C69.0028 15.303 68.8317 15.2621 68.6742 15.1531C68.5154 15.0349 68.4217 14.8789 68.3933 14.6849C68.3648 14.491 68.4097 14.3146 68.5279 14.1558C68.6461 13.997 68.7975 13.904 68.9822 13.8769C69.1761 13.8484 69.3525 13.8933 69.5114 14.0115C69.6702 14.1297 69.7638 14.2857 69.7923 14.4797C69.8207 14.6736 69.7759 14.85 69.6577 15.0088C69.5381 15.1584 69.3814 15.2475 69.1875 15.2759ZM70.8357 22.8448L69.7969 22.9972L68.8152 16.3069L69.8541 16.1544L70.8357 22.8448ZM78.1328 21.7741L77.0939 21.9266L76.9557 20.9847C76.7248 21.3393 76.4125 21.6539 76.0188 21.9287C75.6345 22.202 75.2068 22.3733 74.7358 22.4424C73.3137 22.651 72.4983 22.0443 72.2897 20.6222L71.5966 15.8988L72.6355 15.7463L73.2818 20.1512C73.3631 20.7052 73.5453 21.0794 73.8286 21.2737C74.121 21.4666 74.5119 21.5272 75.0013 21.4554C75.3892 21.3985 75.749 21.2466 76.0807 20.9999C76.4216 20.7517 76.6726 20.4696 76.8338 20.1536L76.1123 15.2362L77.1511 15.0838L78.1328 21.7741ZM88.9921 20.1808L87.9533 20.3332L87.2866 15.7899C87.1511 14.8664 86.6725 14.465 85.8506 14.5856C85.5181 14.6344 85.2006 14.7847 84.898 15.0367C84.5953 15.2886 84.372 15.5666 84.228 15.8708L84.9474 20.7743L83.9086 20.9267L83.2419 16.3833C83.1064 15.4599 82.6278 15.0585 81.8059 15.179C81.4827 15.2265 81.1698 15.3761 80.8671 15.6281C80.5737 15.8787 80.3511 16.1613 80.1992 16.476L80.9166 21.3657L79.8777 21.5181L78.8961 14.8277L79.9349 14.6753L80.0772 15.6449C80.2055 15.362 80.4591 15.0654 80.8381 14.7551C81.2171 14.4447 81.6282 14.2571 82.0714 14.192C82.5608 14.1202 82.9749 14.1774 83.3135 14.3635C83.6521 14.5497 83.8993 14.82 84.0551 15.1745C84.2094 14.8122 84.4761 14.476 84.8551 14.1657C85.234 13.8554 85.6544 13.6663 86.1161 13.5986C87.3628 13.4157 88.085 13.9983 88.2828 15.3466L88.9921 20.1808Z" fill="white"/>
<g clip-path="url(#clip0_1000_11557)">
<path d="M18.4824 19.4079C18.3969 19.4204 18.3161 19.4549 18.2479 19.508C18.1797 19.561 18.1264 19.6308 18.0933 19.7106L15.8509 25.0932C15.8111 25.1889 15.8021 25.2947 15.8251 25.3958C15.8481 25.4969 15.9019 25.5884 15.9792 25.6575L24.7063 33.4734C24.7609 33.5223 24.8255 33.5585 24.8957 33.5796C24.9659 33.6007 25.0398 33.6062 25.1123 33.5955C25.1848 33.5849 25.2541 33.5584 25.3152 33.5181C25.3764 33.4777 25.4279 33.4244 25.4661 33.3619L31.5801 23.3685C31.6343 23.28 31.6596 23.1769 31.6526 23.0735C31.6455 22.97 31.6065 22.8713 31.5409 22.791L27.8468 18.2795C27.7921 18.2126 27.721 18.1611 27.6404 18.1298C27.5599 18.0986 27.4726 18.0888 27.3871 18.1014L18.4824 19.4079ZM17.1137 24.6623L18.9076 20.3562L20.8656 20.0689L19.8633 24.2588L17.1137 24.6623ZM20.0045 25.2488L23.0937 30.687L17.4419 25.6248L20.0045 25.2488ZM24.8394 31.7357L21.0661 25.0931L26.5455 24.2891L24.8394 31.7357ZM20.9289 24.1025L21.9312 19.9126L24.2286 19.5755L26.3924 23.3009L20.9299 24.1024L20.9289 24.1025ZM27.459 23.1444L25.2952 19.419L27.2523 19.1319L30.2075 22.7411L27.458 23.1445L27.459 23.1444ZM27.6071 24.1333L30.1697 23.7573L26.2103 30.2297L27.6071 24.1333Z" fill="white"/>
</g>
<defs>
<linearGradient id="paint0_linear_1000_11557" x1="26.4578" y1="-3.13173" x2="74.8342" y2="34.0866" gradientUnits="userSpaceOnUse">
<stop stop-color="#FFAB2D"/>
<stop offset="1" stop-color="#FF7A00"/>
</linearGradient>
<clipPath id="clip0_1000_11557">
<rect width="20" height="20" fill="white" transform="translate(12.6055 17.2383) rotate(-8.34722)"/>
</clipPath>
</defs>
</svg>
