<svg width="16" height="14" viewBox="0 0 16 14" fill="none" xmlns="http://www.w3.org/2000/svg">
<path d="M14.0758 2.66689H11.7626V2.42924C11.7626 1.36754 10.9009 0.505859 9.83918 0.505859H6.16039C5.09825 0.505859 4.237 1.36754 4.237 2.42924V2.66689H1.92339C0.861249 2.66689 0 3.52814 0 4.59027V11.5717C0 12.6334 0.861249 13.4951 1.92339 13.4951H14.0766C15.1388 13.4951 16 12.6334 16 11.5717V4.59027C15.9991 3.52771 15.1379 2.66689 14.0758 2.66689ZM7.99915 11.4999C5.99541 11.4999 4.36608 9.87061 4.36608 7.86687C4.36608 5.86356 5.99541 4.23381 7.99915 4.23381C10.0029 4.23381 11.6322 5.86313 11.6322 7.86687C11.6322 9.87061 10.0025 11.4999 7.99915 11.4999ZM9.92253 7.86687C9.92253 8.92644 9.05914 9.79025 7.99915 9.79025C6.93915 9.79025 6.07576 8.92644 6.07576 7.86687C6.07576 6.80687 6.93915 5.94348 7.99915 5.94348C9.05914 5.94348 9.92253 6.80687 9.92253 7.86687Z" fill="white"/>
</svg>
