<svg width="16" height="15" viewBox="0 0 16 15" fill="none" xmlns="http://www.w3.org/2000/svg">
<path d="M3.49998 1.10073e-08C3.41357 -1.81179e-05 3.32863 0.0223578 3.25345 0.0649455C3.17826 0.107533 3.1154 0.168879 3.07098 0.243L0.070983 5.243C0.0177285 5.33197 -0.00654824 5.4353 0.00151406 5.53867C0.00957635 5.64205 0.0495786 5.74036 0.115983 5.82L7.61598 14.82C7.66291 14.8763 7.72163 14.9215 7.78798 14.9526C7.85434 14.9837 7.92671 14.9998 7.99998 14.9998C8.07325 14.9998 8.14563 14.9837 8.21198 14.9526C8.27834 14.9215 8.33706 14.8763 8.38398 14.82L15.884 5.82C15.9504 5.74036 15.9904 5.64205 15.9985 5.53867C16.0065 5.4353 15.9822 5.33197 15.929 5.243L12.929 0.243C12.8846 0.168879 12.8217 0.107533 12.7465 0.0649455C12.6713 0.0223578 12.5864 -1.81179e-05 12.5 1.10073e-08H3.49998ZM1.38298 5L3.78298 1H5.76198L4.16198 5H1.38298ZM4.15798 6L6.42498 11.829L1.56798 6H4.15798ZM7.99998 13.12L5.23098 6H10.769L7.99998 13.12ZM5.23898 5L6.83898 1H9.16098L10.761 5H5.23998H5.23898ZM11.839 5L10.239 1H12.217L14.617 5H11.838H11.839ZM11.842 6H14.432L9.57498 11.829L11.842 6Z" fill="white"/>
</svg>
