<svg width="10" height="4" viewBox="0 0 10 4" fill="none" xmlns="http://www.w3.org/2000/svg">
<path d="M6.51604 0.5C5.71992 0.5 5.31283 0.892046 5.31283 1.39037C5.31283 2.29178 6.35561 2.17045 6.35561 2.63369C6.35561 2.7119 6.29545 2.8984 5.85829 2.8984C5.42012 2.8984 5.13636 2.72995 5.13636 2.72995L5 3.33957C5 3.33957 5.28376 3.5 5.8262 3.5C6.36865 3.5 7.11765 3.08489 7.11765 2.48128C7.11765 1.75535 6.07487 1.6982 6.07487 1.37433C6.07487 1.20889 6.20321 1.08556 6.58021 1.08556C6.82487 1.08556 7.1016 1.27005 7.1016 1.27005L7.22995 0.644385C7.22995 0.644385 6.86598 0.5 6.51604 0.5ZM3.12299 0.55615L2.43316 2.59358C2.43316 2.59358 2.38603 2.42012 2.36898 2.31283C1.97493 1.42848 1.33422 1.1016 1.33422 1.1016L1.94385 3.41176H2.77807L3.93315 0.55615H3.12299ZM4.22995 0.55615L3.78075 3.41176H4.54278L5 0.55615H4.22995ZM8.34492 0.55615L7.1016 3.41176H7.85561L8.00802 3.00267H8.95455L9.03476 3.41176H9.7246L9.13904 0.55615H8.34492ZM0.5 0.564171C0.5 0.564171 1.98997 1.0254 2.3369 2.14438L2.08021 0.84492C2.08021 0.84492 1.96992 0.564171 1.67112 0.564171H0.5ZM8.63369 1.38235L8.84225 2.45722H8.21658L8.63369 1.38235Z" fill="white"/>
</svg>
